<svg width="211" height="133" viewBox="0 0 211 133" fill="none" xmlns="http://www.w3.org/2000/svg">
<path d="M69.7684 58.9399L68.4603 56.1948L70.5659 55.2272C69.0239 52.8069 66.5726 50.9992 63.6416 50.3209L63.422 52.6816L60.3951 52.4L60.6148 50.0393C57.609 50.1649 54.8662 51.4897 52.9036 53.5836L54.795 54.923L53.0032 57.3799L51.1442 56.0628C50.4892 57.3173 50.0608 58.7158 49.9211 60.2119C49.7822 61.7077 49.9457 63.1616 50.3572 64.5154L52.3354 63.6062L53.5622 66.388L51.6293 67.2764C53.1722 69.6964 55.623 71.5045 58.5544 72.1832L58.7472 70.1116L61.774 70.3932L61.5813 72.465C64.5871 72.3385 67.3299 71.0139 69.2925 68.92L67.5569 67.6902L69.2756 65.1827L71.0519 66.441C71.7068 65.1865 72.1353 63.788 72.2746 62.2919C72.4139 60.7959 72.2504 59.3423 71.8384 57.9885L69.7684 58.9399Z" fill="black"/>
<path d="M157.463 58.9399L156.155 56.1948L158.261 55.2272C156.719 52.8069 154.267 50.9992 151.336 50.3209L151.117 52.6816L148.09 52.4L148.31 50.0393C145.304 50.1649 142.561 51.4897 140.598 53.5836L142.49 54.923L140.698 57.3799L138.839 56.0628C138.184 57.3173 137.756 58.7158 137.616 60.2119C137.477 61.7077 137.641 63.1616 138.052 64.5154L140.03 63.6062L141.257 66.388L139.324 67.2764C140.867 69.6964 143.318 71.5045 146.249 72.1832L146.442 70.1116L149.469 70.3932L149.276 72.465C152.282 72.3385 155.025 71.0139 156.987 68.92L155.252 67.6902L156.97 65.1827L158.747 66.441C159.402 65.1865 159.83 63.788 159.969 62.2919C160.109 60.7959 159.945 59.3423 159.533 57.9885L157.463 58.9399Z" fill="black"/>
<path d="M208.673 86.6382V6.30974C208.673 3.21005 206.16 0.697266 203.061 0.697266H7.092C3.99254 0.697266 1.47953 3.21005 1.47953 6.30974V86.6382L0.076416 88.0413V121.482L1.47953 122.659V126.744C1.47953 129.843 3.99254 132.356 7.092 132.356H30.2339L38.9211 95.3069C39.0933 94.5654 39.7542 94.0403 40.5156 94.0403H169.719C170.481 94.0403 171.142 94.5654 171.314 95.3069L179.775 132.356H203.061C206.16 132.356 208.673 129.843 208.673 126.744V122.659L210.076 121.482V88.0413L208.673 86.6382ZM5.77887 80.4411V42.7908H29.1686C26.5668 47.3016 24.8687 52.4296 24.3548 57.9544C23.5953 66.1134 25.5314 73.8982 29.4208 80.4411H5.77887ZM69.4398 80.4411H53.0185C45.6576 77.261 40.505 69.9389 40.505 61.4104C40.505 53.2315 45.2443 46.1617 52.1251 42.7908H70.3332C77.2141 46.1617 81.9536 53.2315 81.9536 61.4104C81.9536 69.9389 76.8007 77.261 69.4398 80.4411ZM93.5742 80.4411C96.3132 75.8313 98.1044 70.5609 98.6345 64.8665C99.3778 56.8772 97.5346 49.248 93.8062 42.7908H116.863C114.261 47.3016 112.564 52.4296 112.05 57.9544C111.29 66.1134 113.226 73.8982 117.116 80.4411H93.5742ZM157.135 80.4411H140.713C133.352 77.261 128.2 69.9389 128.2 61.4104C128.2 53.2315 132.939 46.1617 139.82 42.7908H158.028C164.909 46.1617 169.648 53.2315 169.648 61.4104C169.648 69.9389 164.496 77.261 157.135 80.4411ZM202.449 80.4411H181.269C184.008 75.8313 185.799 70.5609 186.329 64.8665C187.073 56.8772 185.229 49.248 181.501 42.7908H202.449V80.4411V80.4411Z" fill="black"/>
<path d="M41.8157 97.3145L33.5964 132.357H176.417L168.419 97.3145H41.8157ZM54.9244 125.392C52.0186 125.392 49.6627 123.036 49.6627 120.13C49.6627 117.224 52.0186 114.868 54.9244 114.868C57.8302 114.868 60.1861 117.224 60.1861 120.13C60.1861 123.036 57.8302 125.392 54.9244 125.392ZM75.8123 121.884C73.344 121.884 71.3435 119.883 71.3435 117.416C71.3435 114.948 73.344 112.947 75.8123 112.947C78.2801 112.947 80.281 114.948 80.281 117.416C80.281 119.883 78.2801 121.884 75.8123 121.884ZM134.645 121.884C132.178 121.884 130.177 119.883 130.177 117.416C130.177 114.948 132.178 112.947 134.645 112.947C137.114 112.947 139.114 114.948 139.114 117.416C139.114 119.883 137.114 121.884 134.645 121.884ZM155.228 125.392C152.321 125.392 149.966 123.036 149.966 120.13C149.966 117.224 152.321 114.868 155.228 114.868C158.134 114.868 160.489 117.224 160.489 120.13C160.489 123.036 158.134 125.392 155.228 125.392Z" fill="black"/>
</svg>
